<mxfile host="app.diagrams.net" agent="Mozilla/5.0 (Windows NT 10.0; Win64; x64) AppleWebKit/537.36 (KHTML, like Gecko) Chrome/129.0.0.0 Safari/537.36 Edg/129.0.0.0" version="24.7.17">
  <diagram id="C5RBs43oDa-KdzZeNtuy" name="Page-1">
    <mxGraphModel dx="1042" dy="573" grid="1" gridSize="10" guides="1" tooltips="1" connect="1" arrows="1" fold="1" page="1" pageScale="1" pageWidth="827" pageHeight="1169" math="0" shadow="0">
      <root>
        <mxCell id="WIyWlLk6GJQsqaUBKTNV-0" />
        <mxCell id="WIyWlLk6GJQsqaUBKTNV-1" parent="WIyWlLk6GJQsqaUBKTNV-0" />
        <mxCell id="sBQ4GWvd8PP3dseFrhMe-0" value="&amp;nbsp;- transactions: ArrayList&amp;lt;Transaction&amp;gt;&amp;nbsp;&lt;br&gt;- FILE_NAME: String = &lt;span class=&quot;hljs-string&quot;&gt;&quot;transactions.csv&quot;&lt;/span&gt;&amp;nbsp;&lt;div&gt;&amp;nbsp;- DATE_FORMAT: String = &lt;span class=&quot;hljs-string&quot;&gt;&quot;yyyy-MM-dd&quot;&lt;/span&gt;&amp;nbsp;&lt;br&gt;&amp;nbsp;- TIME_FORMAT: String = &lt;span class=&quot;hljs-string&quot;&gt;&quot;HH:mm:ss&quot;&lt;/span&gt;&amp;nbsp;&lt;br&gt;- DATE_FORMATTER: DateTimeFormatter&amp;nbsp;&lt;br&gt;&amp;nbsp;- TIME_FORMATTER: DateTimeFormatter&lt;/div&gt;" style="text;strokeColor=none;align=left;fillColor=none;html=1;verticalAlign=middle;whiteSpace=wrap;rounded=0;" vertex="1" parent="WIyWlLk6GJQsqaUBKTNV-1">
          <mxGeometry x="510" y="210" width="300" height="110" as="geometry" />
        </mxCell>
        <mxCell id="sBQ4GWvd8PP3dseFrhMe-1" value="Financial Tracker" style="text;strokeColor=none;align=center;fillColor=none;html=1;verticalAlign=middle;whiteSpace=wrap;rounded=0;" vertex="1" parent="WIyWlLk6GJQsqaUBKTNV-1">
          <mxGeometry x="585" y="180" width="120" height="30" as="geometry" />
        </mxCell>
        <mxCell id="sBQ4GWvd8PP3dseFrhMe-2" value="Te+ &lt;span class=&quot;hljs-title function_ invoke__&quot;&gt;main&lt;/span&gt;(&lt;span class=&quot;hljs-attr&quot;&gt;args&lt;/span&gt;: String[]): &lt;span class=&quot;hljs-keyword&quot;&gt;void&lt;/span&gt;             |&lt;br&gt;| + &lt;span class=&quot;hljs-title function_ invoke__&quot;&gt;loadTransactions&lt;/span&gt;(&lt;span class=&quot;hljs-attr&quot;&gt;fileName&lt;/span&gt;: String): &lt;span class=&quot;hljs-keyword&quot;&gt;void&lt;/span&gt; |&lt;br&gt;| + &lt;span class=&quot;hljs-title function_ invoke__&quot;&gt;addDeposit&lt;/span&gt;(&lt;span class=&quot;hljs-attr&quot;&gt;scanner&lt;/span&gt;: Scanner): &lt;span class=&quot;hljs-keyword&quot;&gt;void&lt;/span&gt;     |&lt;br&gt;| + &lt;span class=&quot;hljs-title function_ invoke__&quot;&gt;addPayment&lt;/span&gt;(&lt;span class=&quot;hljs-attr&quot;&gt;scanner&lt;/span&gt;: Scanner): &lt;span class=&quot;hljs-keyword&quot;&gt;void&lt;/span&gt;     |&lt;br&gt;| + &lt;span class=&quot;hljs-title function_ invoke__&quot;&gt;saveTransactionToFile&lt;/span&gt;(&lt;span class=&quot;hljs-attr&quot;&gt;transaction&lt;/span&gt;: Transaction): &lt;span class=&quot;hljs-keyword&quot;&gt;void&lt;/span&gt; |&lt;br&gt;| + &lt;span class=&quot;hljs-title function_ invoke__&quot;&gt;ledgerMenu&lt;/span&gt;(&lt;span class=&quot;hljs-attr&quot;&gt;scanner&lt;/span&gt;: Scanner): &lt;span class=&quot;hljs-keyword&quot;&gt;void&lt;/span&gt;     |&lt;br&gt;| + &lt;span class=&quot;hljs-title function_ invoke__&quot;&gt;displayLedger&lt;/span&gt;(): &lt;span class=&quot;hljs-keyword&quot;&gt;void&lt;/span&gt;                  |&lt;br&gt;| + &lt;span class=&quot;hljs-title function_ invoke__&quot;&gt;displayDeposits&lt;/span&gt;(): &lt;span class=&quot;hljs-keyword&quot;&gt;void&lt;/span&gt;                |&lt;br&gt;| + &lt;span class=&quot;hljs-title function_ invoke__&quot;&gt;displayPayments&lt;/span&gt;(): &lt;span class=&quot;hljs-keyword&quot;&gt;void&lt;/span&gt;                |&lt;br&gt;| + &lt;span class=&quot;hljs-title function_ invoke__&quot;&gt;reportsMenu&lt;/span&gt;(&lt;span class=&quot;hljs-attr&quot;&gt;scanner&lt;/span&gt;: Scanner): &lt;span class=&quot;hljs-keyword&quot;&gt;void&lt;/span&gt;    |&lt;br&gt;| + &lt;span class=&quot;hljs-title function_ invoke__&quot;&gt;filterTransactionsByDate&lt;/span&gt;(&lt;span class=&quot;hljs-attr&quot;&gt;startDate&lt;/span&gt;: LocalDate, &lt;span class=&quot;hljs-attr&quot;&gt;endDate&lt;/span&gt;: LocalDate): &lt;span class=&quot;hljs-keyword&quot;&gt;void&lt;/span&gt; |&lt;br&gt;| + &lt;span class=&quot;hljs-title function_ invoke__&quot;&gt;filterTransactionsByVendor&lt;/span&gt;(&lt;span class=&quot;hljs-attr&quot;&gt;vendor&lt;/span&gt;: String): &lt;span class=&quot;hljs-keyword&quot;&gt;void&lt;/span&gt; |&lt;br&gt;| + &lt;span class=&quot;hljs-title function_ invoke__&quot;&gt;filterByMonth&lt;/span&gt;(&lt;span class=&quot;hljs-attr&quot;&gt;date&lt;/span&gt;: LocalDate): &lt;span class=&quot;hljs-keyword&quot;&gt;void&lt;/span&gt;   |&lt;br&gt;| + &lt;span class=&quot;hljs-title function_ invoke__&quot;&gt;filterByPreviousMonth&lt;/span&gt;(): &lt;span class=&quot;hljs-keyword&quot;&gt;void&lt;/span&gt;          |&lt;br&gt;| + &lt;span class=&quot;hljs-title function_ invoke__&quot;&gt;filterByYear&lt;/span&gt;(&lt;span class=&quot;hljs-attr&quot;&gt;year&lt;/span&gt;: &lt;span class=&quot;hljs-keyword&quot;&gt;int&lt;/span&gt;): &lt;span class=&quot;hljs-keyword&quot;&gt;void&lt;/span&gt;          |&lt;br&gt;| + &lt;span class=&quot;hljs-title function_ invoke__&quot;&gt;customSearch&lt;/span&gt;(&lt;span class=&quot;hljs-attr&quot;&gt;scanner&lt;/span&gt;: Scanner): &lt;span class=&quot;hljs-keyword&quot;&gt;void&lt;/span&gt;   |&lt;br&gt;| + &lt;span class=&quot;hljs-title function_ invoke__&quot;&gt;filterTransactionsCustom&lt;/span&gt;(&lt;span class=&quot;hljs-attr&quot;&gt;startDate&lt;/span&gt;: LocalDate, &lt;span class=&quot;hljs-attr&quot;&gt;endDate&lt;/span&gt;: LocalDate, &lt;span class=&quot;hljs-attr&quot;&gt;description&lt;/span&gt;: String, &lt;span class=&quot;hljs-attr&quot;&gt;vendor&lt;/span&gt;: String, &lt;span class=&quot;hljs-attr&quot;&gt;amount&lt;/span&gt;: Double): &lt;span class=&quot;hljs-keyword&quot;&gt;void&lt;/span&gt; |xt" style="text;strokeColor=none;align=left;fillColor=none;html=1;verticalAlign=middle;whiteSpace=wrap;rounded=0;" vertex="1" parent="WIyWlLk6GJQsqaUBKTNV-1">
          <mxGeometry x="510" y="310" width="270" height="350" as="geometry" />
        </mxCell>
        <mxCell id="sBQ4GWvd8PP3dseFrhMe-3" value="" style="whiteSpace=wrap;html=1;fillColor=none;" vertex="1" parent="WIyWlLk6GJQsqaUBKTNV-1">
          <mxGeometry x="510" y="220" width="240" height="100" as="geometry" />
        </mxCell>
        <mxCell id="sBQ4GWvd8PP3dseFrhMe-4" value="" style="whiteSpace=wrap;html=1;fillColor=none;" vertex="1" parent="WIyWlLk6GJQsqaUBKTNV-1">
          <mxGeometry x="585" y="180" width="120" height="30" as="geometry" />
        </mxCell>
        <mxCell id="sBQ4GWvd8PP3dseFrhMe-5" value="" style="whiteSpace=wrap;html=1;fillColor=none;" vertex="1" parent="WIyWlLk6GJQsqaUBKTNV-1">
          <mxGeometry x="510" y="320" width="270" height="330" as="geometry" />
        </mxCell>
        <mxCell id="sBQ4GWvd8PP3dseFrhMe-6" value="&amp;nbsp;| - date: LocalDate  |           &lt;br&gt;    | - time: LocalTime  |           &lt;br&gt;    | - description: String |&lt;br&gt;    | - vendor: String   |           &lt;br&gt;    | - amount: &lt;span class=&quot;hljs-keyword&quot;&gt;double&lt;/span&gt;   |&lt;br&gt;    +-------------------+&lt;br&gt;    | + &lt;span class=&quot;hljs-title function_ invoke__&quot;&gt;getDate&lt;/span&gt;(): LocalDate |&lt;br&gt;    | + &lt;span class=&quot;hljs-title function_ invoke__&quot;&gt;getTime&lt;/span&gt;(): LocalTime |&lt;br&gt;    | + &lt;span class=&quot;hljs-title function_ invoke__&quot;&gt;getDescription&lt;/span&gt;(): String |&lt;br&gt;    | + &lt;span class=&quot;hljs-title function_ invoke__&quot;&gt;getVendor&lt;/span&gt;(): String |&lt;br&gt;    | + &lt;span class=&quot;hljs-title function_ invoke__&quot;&gt;getAmount&lt;/span&gt;(): &lt;span class=&quot;hljs-keyword&quot;&gt;double&lt;/span&gt; |&lt;br&gt;    | + &lt;span class=&quot;hljs-title function_ invoke__&quot;&gt;toString&lt;/span&gt;(): String  |" style="text;strokeColor=none;align=left;fillColor=none;html=1;verticalAlign=middle;whiteSpace=wrap;rounded=0;" vertex="1" parent="WIyWlLk6GJQsqaUBKTNV-1">
          <mxGeometry x="240" y="250" width="160" height="180" as="geometry" />
        </mxCell>
        <mxCell id="sBQ4GWvd8PP3dseFrhMe-7" value="" style="whiteSpace=wrap;html=1;fillColor=none;" vertex="1" parent="WIyWlLk6GJQsqaUBKTNV-1">
          <mxGeometry x="240" y="250" width="150" height="180" as="geometry" />
        </mxCell>
        <mxCell id="sBQ4GWvd8PP3dseFrhMe-8" value="Transaction" style="text;strokeColor=none;align=center;fillColor=none;html=1;verticalAlign=middle;whiteSpace=wrap;rounded=0;" vertex="1" parent="WIyWlLk6GJQsqaUBKTNV-1">
          <mxGeometry x="265" y="195" width="90" height="30" as="geometry" />
        </mxCell>
        <mxCell id="sBQ4GWvd8PP3dseFrhMe-9" value="" style="whiteSpace=wrap;html=1;fillColor=none;" vertex="1" parent="WIyWlLk6GJQsqaUBKTNV-1">
          <mxGeometry x="250" y="180" width="120" height="60" as="geometry" />
        </mxCell>
        <mxCell id="sBQ4GWvd8PP3dseFrhMe-11" value="" style="shape=singleArrow;direction=west;whiteSpace=wrap;html=1;fillColor=none;" vertex="1" parent="WIyWlLk6GJQsqaUBKTNV-1">
          <mxGeometry x="390" y="170" width="170" height="50" as="geometry" />
        </mxCell>
        <mxCell id="sBQ4GWvd8PP3dseFrhMe-12" value="has a&amp;nbsp;" style="text;strokeColor=none;align=center;fillColor=none;html=1;verticalAlign=middle;whiteSpace=wrap;rounded=0;" vertex="1" parent="WIyWlLk6GJQsqaUBKTNV-1">
          <mxGeometry x="450" y="180" width="60" height="30" as="geometry" />
        </mxCell>
      </root>
    </mxGraphModel>
  </diagram>
</mxfile>
